<mxfile host="app.diagrams.net" modified="2021-06-14T01:42:01.170Z" agent="5.0 (Windows NT 10.0; Win64; x64) AppleWebKit/537.36 (KHTML, like Gecko) Chrome/91.0.4472.77 Safari/537.36" etag="j-CEWzzklf7z8QMpavE5" version="14.7.7" type="github">
  <diagram id="SuXs27aP5IYncbQwsvMg" name="Page-1">
    <mxGraphModel dx="1999" dy="1931" grid="1" gridSize="10" guides="1" tooltips="1" connect="1" arrows="1" fold="1" page="1" pageScale="1" pageWidth="827" pageHeight="1169" math="0" shadow="0">
      <root>
        <mxCell id="0" />
        <mxCell id="1" parent="0" />
        <mxCell id="Gnk8CrxK3jGo0koOOACp-2" value="Team" style="rounded=1;whiteSpace=wrap;html=1;" parent="1" vertex="1">
          <mxGeometry x="610" y="120" width="190" height="100" as="geometry" />
        </mxCell>
        <mxCell id="Gnk8CrxK3jGo0koOOACp-4" value="Reply" style="rounded=1;whiteSpace=wrap;html=1;" parent="1" vertex="1">
          <mxGeometry x="370" y="585" width="120" height="60" as="geometry" />
        </mxCell>
        <mxCell id="Gnk8CrxK3jGo0koOOACp-5" value="Card" style="rounded=1;whiteSpace=wrap;html=1;" parent="1" vertex="1">
          <mxGeometry x="-60" y="630" width="300" height="160" as="geometry" />
        </mxCell>
        <mxCell id="Gnk8CrxK3jGo0koOOACp-20" value="Team Member" style="rounded=1;whiteSpace=wrap;html=1;" parent="1" vertex="1">
          <mxGeometry x="610" y="255" width="190" height="205" as="geometry" />
        </mxCell>
        <mxCell id="Gnk8CrxK3jGo0koOOACp-22" value="" style="edgeStyle=entityRelationEdgeStyle;fontSize=12;html=1;endArrow=ERzeroToMany;startArrow=ERmandOne;entryX=1;entryY=0.5;entryDx=0;entryDy=0;exitX=1;exitY=0.5;exitDx=0;exitDy=0;" parent="1" source="Gnk8CrxK3jGo0koOOACp-2" target="Gnk8CrxK3jGo0koOOACp-20" edge="1">
          <mxGeometry width="100" height="100" relative="1" as="geometry">
            <mxPoint x="450" y="220" as="sourcePoint" />
            <mxPoint x="110" y="510" as="targetPoint" />
          </mxGeometry>
        </mxCell>
        <mxCell id="Gnk8CrxK3jGo0koOOACp-23" value="Team Creator" style="rounded=1;whiteSpace=wrap;html=1;" parent="1" vertex="1">
          <mxGeometry x="230" y="120" width="120" height="100" as="geometry" />
        </mxCell>
        <mxCell id="Gnk8CrxK3jGo0koOOACp-25" value="User" style="rounded=1;whiteSpace=wrap;html=1;" parent="1" vertex="1">
          <mxGeometry x="230" y="-20" width="140" height="100" as="geometry" />
        </mxCell>
        <mxCell id="Gnk8CrxK3jGo0koOOACp-27" value="" style="edgeStyle=entityRelationEdgeStyle;fontSize=12;html=1;endArrow=ERzeroToMany;startArrow=ERmandOne;exitX=0.5;exitY=1;exitDx=0;exitDy=0;entryX=0.5;entryY=0;entryDx=0;entryDy=0;" parent="1" source="Gnk8CrxK3jGo0koOOACp-25" target="Gnk8CrxK3jGo0koOOACp-23" edge="1">
          <mxGeometry width="100" height="100" relative="1" as="geometry">
            <mxPoint x="160" y="370" as="sourcePoint" />
            <mxPoint x="260" y="270" as="targetPoint" />
          </mxGeometry>
        </mxCell>
        <mxCell id="Gnk8CrxK3jGo0koOOACp-28" value="" style="edgeStyle=entityRelationEdgeStyle;fontSize=12;html=1;endArrow=ERzeroToOne;startArrow=ERmandOne;entryX=1;entryY=0.5;entryDx=0;entryDy=0;exitX=-0.001;exitY=0.142;exitDx=0;exitDy=0;exitPerimeter=0;" parent="1" source="Gnk8CrxK3jGo0koOOACp-20" target="Gnk8CrxK3jGo0koOOACp-32" edge="1">
          <mxGeometry width="100" height="100" relative="1" as="geometry">
            <mxPoint x="430" y="278" as="sourcePoint" />
            <mxPoint x="490" y="500" as="targetPoint" />
          </mxGeometry>
        </mxCell>
        <mxCell id="Gnk8CrxK3jGo0koOOACp-29" value="" style="edgeStyle=entityRelationEdgeStyle;fontSize=12;html=1;endArrow=ERzeroToMany;startArrow=ERmandOne;exitX=0.25;exitY=1;exitDx=0;exitDy=0;entryX=0.5;entryY=0;entryDx=0;entryDy=0;" parent="1" source="Gnk8CrxK3jGo0koOOACp-34" target="Gnk8CrxK3jGo0koOOACp-5" edge="1">
          <mxGeometry width="100" height="100" relative="1" as="geometry">
            <mxPoint x="60" y="460" as="sourcePoint" />
            <mxPoint x="-60" y="560" as="targetPoint" />
          </mxGeometry>
        </mxCell>
        <mxCell id="Gnk8CrxK3jGo0koOOACp-30" value="" style="edgeStyle=entityRelationEdgeStyle;fontSize=12;html=1;endArrow=ERzeroToMany;startArrow=ERmandOne;exitX=1;exitY=0.5;exitDx=0;exitDy=0;entryX=0;entryY=0.5;entryDx=0;entryDy=0;" parent="1" source="Gnk8CrxK3jGo0koOOACp-5" target="Gnk8CrxK3jGo0koOOACp-4" edge="1">
          <mxGeometry width="100" height="100" relative="1" as="geometry">
            <mxPoint x="280" y="540" as="sourcePoint" />
            <mxPoint x="370" y="585" as="targetPoint" />
          </mxGeometry>
        </mxCell>
        <mxCell id="Gnk8CrxK3jGo0koOOACp-32" value="Board Creator" style="rounded=1;whiteSpace=wrap;html=1;" parent="1" vertex="1">
          <mxGeometry x="240" y="-90" width="120" height="60" as="geometry" />
        </mxCell>
        <mxCell id="Gnk8CrxK3jGo0koOOACp-33" value="" style="edgeStyle=entityRelationEdgeStyle;fontSize=12;html=1;endArrow=ERmandOne;startArrow=ERmandOne;exitX=1;exitY=0.25;exitDx=0;exitDy=0;entryX=0;entryY=0.5;entryDx=0;entryDy=0;" parent="1" source="Gnk8CrxK3jGo0koOOACp-34" target="Gnk8CrxK3jGo0koOOACp-32" edge="1">
          <mxGeometry width="100" height="100" relative="1" as="geometry">
            <mxPoint x="110" y="360" as="sourcePoint" />
            <mxPoint x="270" y="360" as="targetPoint" />
          </mxGeometry>
        </mxCell>
        <mxCell id="Gnk8CrxK3jGo0koOOACp-34" value="" style="rounded=1;absoluteArcSize=1;html=1;arcSize=10;" parent="1" vertex="1">
          <mxGeometry x="-60" y="270" width="150" height="160" as="geometry" />
        </mxCell>
        <mxCell id="Gnk8CrxK3jGo0koOOACp-35" value="Board" style="html=1;shape=mxgraph.er.anchor;whiteSpace=wrap;" parent="Gnk8CrxK3jGo0koOOACp-34" vertex="1">
          <mxGeometry y="-10" width="150" height="170" as="geometry" />
        </mxCell>
        <mxCell id="Gnk8CrxK3jGo0koOOACp-39" value="" style="edgeStyle=entityRelationEdgeStyle;fontSize=12;html=1;endArrow=ERzeroToMany;startArrow=ERmandOne;entryX=1;entryY=0.25;entryDx=0;entryDy=0;exitX=-0.001;exitY=0.851;exitDx=0;exitDy=0;exitPerimeter=0;" parent="1" source="Gnk8CrxK3jGo0koOOACp-20" target="Gnk8CrxK3jGo0koOOACp-4" edge="1">
          <mxGeometry width="100" height="100" relative="1" as="geometry">
            <mxPoint x="530" y="440" as="sourcePoint" />
            <mxPoint x="310" y="260" as="targetPoint" />
          </mxGeometry>
        </mxCell>
        <mxCell id="Gnk8CrxK3jGo0koOOACp-40" value="" style="edgeStyle=entityRelationEdgeStyle;fontSize=12;html=1;endArrow=ERzeroToMany;startArrow=ERmandOne;exitX=0.008;exitY=0.617;exitDx=0;exitDy=0;exitPerimeter=0;entryX=1;entryY=0.25;entryDx=0;entryDy=0;" parent="1" source="Gnk8CrxK3jGo0koOOACp-20" target="Gnk8CrxK3jGo0koOOACp-5" edge="1">
          <mxGeometry width="100" height="100" relative="1" as="geometry">
            <mxPoint x="520" y="480" as="sourcePoint" />
            <mxPoint x="620" y="380" as="targetPoint" />
          </mxGeometry>
        </mxCell>
        <mxCell id="Gnk8CrxK3jGo0koOOACp-41" value="" style="edgeStyle=entityRelationEdgeStyle;fontSize=12;html=1;endArrow=ERzeroToMany;startArrow=ERmandOne;exitX=1;exitY=0.75;exitDx=0;exitDy=0;entryX=0.003;entryY=0.303;entryDx=0;entryDy=0;entryPerimeter=0;" parent="1" source="Gnk8CrxK3jGo0koOOACp-25" target="Gnk8CrxK3jGo0koOOACp-20" edge="1">
          <mxGeometry width="100" height="100" relative="1" as="geometry">
            <mxPoint x="210" y="360" as="sourcePoint" />
            <mxPoint x="567" y="320" as="targetPoint" />
          </mxGeometry>
        </mxCell>
        <mxCell id="Gnk8CrxK3jGo0koOOACp-43" value="" style="edgeStyle=entityRelationEdgeStyle;fontSize=12;html=1;endArrow=ERmandOne;startArrow=ERmandOne;exitX=1;exitY=0.5;exitDx=0;exitDy=0;" parent="1" source="Gnk8CrxK3jGo0koOOACp-23" target="Gnk8CrxK3jGo0koOOACp-2" edge="1">
          <mxGeometry width="100" height="100" relative="1" as="geometry">
            <mxPoint x="210" y="360" as="sourcePoint" />
            <mxPoint x="460" y="250" as="targetPoint" />
          </mxGeometry>
        </mxCell>
        <mxCell id="Gnk8CrxK3jGo0koOOACp-44" value="Attachment" style="rounded=1;whiteSpace=wrap;html=1;" parent="1" vertex="1">
          <mxGeometry x="370" y="720" width="120" height="60" as="geometry" />
        </mxCell>
        <mxCell id="Gnk8CrxK3jGo0koOOACp-45" value="Team Activity" style="rounded=1;whiteSpace=wrap;html=1;" parent="1" vertex="1">
          <mxGeometry x="240" y="420" width="120" height="60" as="geometry" />
        </mxCell>
        <mxCell id="Gnk8CrxK3jGo0koOOACp-46" value="" style="edgeStyle=entityRelationEdgeStyle;fontSize=12;html=1;endArrow=ERzeroToMany;startArrow=ERmandOne;exitX=1;exitY=0.75;exitDx=0;exitDy=0;entryX=0;entryY=0.5;entryDx=0;entryDy=0;" parent="1" source="Gnk8CrxK3jGo0koOOACp-5" target="Gnk8CrxK3jGo0koOOACp-44" edge="1">
          <mxGeometry width="100" height="100" relative="1" as="geometry">
            <mxPoint x="210" y="660" as="sourcePoint" />
            <mxPoint x="310" y="560" as="targetPoint" />
          </mxGeometry>
        </mxCell>
        <mxCell id="Gnk8CrxK3jGo0koOOACp-47" value="" style="edgeStyle=entityRelationEdgeStyle;fontSize=12;html=1;endArrow=ERzeroToMany;startArrow=ERmandOne;exitX=0.5;exitY=1;exitDx=0;exitDy=0;entryX=1;entryY=0.5;entryDx=0;entryDy=0;" parent="1" source="Gnk8CrxK3jGo0koOOACp-20" target="Gnk8CrxK3jGo0koOOACp-44" edge="1">
          <mxGeometry width="100" height="100" relative="1" as="geometry">
            <mxPoint x="210" y="550" as="sourcePoint" />
            <mxPoint x="310" y="450" as="targetPoint" />
          </mxGeometry>
        </mxCell>
        <mxCell id="Gnk8CrxK3jGo0koOOACp-48" value="" style="edgeStyle=entityRelationEdgeStyle;fontSize=12;html=1;endArrow=ERzeroToMany;startArrow=ERmandOne;exitX=0;exitY=0.75;exitDx=0;exitDy=0;" parent="1" source="Gnk8CrxK3jGo0koOOACp-20" target="Gnk8CrxK3jGo0koOOACp-45" edge="1">
          <mxGeometry width="100" height="100" relative="1" as="geometry">
            <mxPoint x="390" y="340" as="sourcePoint" />
            <mxPoint x="370" y="450" as="targetPoint" />
          </mxGeometry>
        </mxCell>
        <mxCell id="Gnk8CrxK3jGo0koOOACp-51" value="" style="edgeStyle=entityRelationEdgeStyle;fontSize=12;html=1;endArrow=ERzeroToMany;startArrow=ERmandOne;entryX=0.75;entryY=0;entryDx=0;entryDy=0;exitX=0.5;exitY=1;exitDx=0;exitDy=0;" parent="1" source="Gnk8CrxK3jGo0koOOACp-23" target="Gnk8CrxK3jGo0koOOACp-5" edge="1">
          <mxGeometry width="100" height="100" relative="1" as="geometry">
            <mxPoint x="370" y="175" as="sourcePoint" />
            <mxPoint x="570" y="300" as="targetPoint" />
          </mxGeometry>
        </mxCell>
        <mxCell id="Gnk8CrxK3jGo0koOOACp-54" value="" style="edgeStyle=entityRelationEdgeStyle;fontSize=12;html=1;endArrow=ERzeroToMany;startArrow=ERmandOne;entryX=0.5;entryY=0;entryDx=0;entryDy=0;exitX=0.75;exitY=1;exitDx=0;exitDy=0;" parent="1" source="Gnk8CrxK3jGo0koOOACp-23" target="Gnk8CrxK3jGo0koOOACp-4" edge="1">
          <mxGeometry width="100" height="100" relative="1" as="geometry">
            <mxPoint x="310" y="190" as="sourcePoint" />
            <mxPoint x="175" y="640" as="targetPoint" />
          </mxGeometry>
        </mxCell>
        <mxCell id="Gnk8CrxK3jGo0koOOACp-55" value="" style="edgeStyle=entityRelationEdgeStyle;fontSize=12;html=1;endArrow=ERzeroToMany;startArrow=ERmandOne;exitX=0.5;exitY=1;exitDx=0;exitDy=0;entryX=0.25;entryY=0;entryDx=0;entryDy=0;" parent="1" source="Gnk8CrxK3jGo0koOOACp-23" target="Gnk8CrxK3jGo0koOOACp-45" edge="1">
          <mxGeometry width="100" height="100" relative="1" as="geometry">
            <mxPoint x="510" y="414.73" as="sourcePoint" />
            <mxPoint x="370" y="460" as="targetPoint" />
          </mxGeometry>
        </mxCell>
        <mxCell id="Gnk8CrxK3jGo0koOOACp-60" value="" style="edgeStyle=entityRelationEdgeStyle;fontSize=12;html=1;endArrow=ERmandOne;startArrow=ERmandOne;exitX=0.606;exitY=-0.001;exitDx=0;exitDy=0;exitPerimeter=0;entryX=0;entryY=0.5;entryDx=0;entryDy=0;" parent="1" source="Gnk8CrxK3jGo0koOOACp-5" target="Gnk8CrxK3jGo0koOOACp-45" edge="1">
          <mxGeometry width="100" height="100" relative="1" as="geometry">
            <mxPoint x="210" y="550" as="sourcePoint" />
            <mxPoint x="310" y="450" as="targetPoint" />
          </mxGeometry>
        </mxCell>
        <mxCell id="Gnk8CrxK3jGo0koOOACp-61" value="" style="edgeStyle=entityRelationEdgeStyle;fontSize=12;html=1;endArrow=ERmandOne;startArrow=ERmandOne;exitX=0;exitY=0.25;exitDx=0;exitDy=0;entryX=0.5;entryY=1;entryDx=0;entryDy=0;" parent="1" source="Gnk8CrxK3jGo0koOOACp-4" target="Gnk8CrxK3jGo0koOOACp-45" edge="1">
          <mxGeometry width="100" height="100" relative="1" as="geometry">
            <mxPoint x="189.99999999999994" y="659.8400000000001" as="sourcePoint" />
            <mxPoint x="308.2" y="480" as="targetPoint" />
          </mxGeometry>
        </mxCell>
        <mxCell id="Gnk8CrxK3jGo0koOOACp-62" value="" style="edgeStyle=entityRelationEdgeStyle;fontSize=12;html=1;endArrow=ERmandOne;startArrow=ERmandOne;exitX=0;exitY=0.25;exitDx=0;exitDy=0;entryX=0.25;entryY=1;entryDx=0;entryDy=0;" parent="1" source="Gnk8CrxK3jGo0koOOACp-44" target="Gnk8CrxK3jGo0koOOACp-45" edge="1">
          <mxGeometry width="100" height="100" relative="1" as="geometry">
            <mxPoint x="141.79999999999995" y="649.8400000000001" as="sourcePoint" />
            <mxPoint x="260" y="470" as="targetPoint" />
          </mxGeometry>
        </mxCell>
        <mxCell id="Gnk8CrxK3jGo0koOOACp-67" value="create" style="text;strokeColor=none;fillColor=none;spacingLeft=4;spacingRight=4;overflow=hidden;rotatable=0;points=[[0,0.5],[1,0.5]];portConstraint=eastwest;fontSize=12;" parent="1" vertex="1">
          <mxGeometry x="250" y="100" width="50" height="30" as="geometry" />
        </mxCell>
        <mxCell id="Gnk8CrxK3jGo0koOOACp-68" value="be created by" style="text;strokeColor=none;fillColor=none;spacingLeft=4;spacingRight=4;overflow=hidden;rotatable=0;points=[[0,0.5],[1,0.5]];portConstraint=eastwest;fontSize=12;" parent="1" vertex="1">
          <mxGeometry x="280" y="80" width="90" height="30" as="geometry" />
        </mxCell>
        <mxCell id="Gnk8CrxK3jGo0koOOACp-69" value="have" style="text;strokeColor=none;fillColor=none;spacingLeft=4;spacingRight=4;overflow=hidden;rotatable=0;points=[[0,0.5],[1,0.5]];portConstraint=eastwest;fontSize=12;" parent="1" vertex="1">
          <mxGeometry x="570" y="140" width="90" height="30" as="geometry" />
        </mxCell>
        <mxCell id="Gnk8CrxK3jGo0koOOACp-71" value="belong to" style="text;strokeColor=none;fillColor=none;spacingLeft=4;spacingRight=4;overflow=hidden;rotatable=0;points=[[0,0.5],[1,0.5]];portConstraint=eastwest;fontSize=12;" parent="1" vertex="1">
          <mxGeometry x="350" y="140" width="90" height="30" as="geometry" />
        </mxCell>
        <mxCell id="Gnk8CrxK3jGo0koOOACp-72" value="be added by" style="text;strokeColor=none;fillColor=none;spacingLeft=4;spacingRight=4;overflow=hidden;rotatable=0;points=[[0,0.5],[1,0.5]];portConstraint=eastwest;fontSize=12;" parent="1" vertex="1">
          <mxGeometry x="670" y="460" width="90" height="30" as="geometry" />
        </mxCell>
        <mxCell id="Gnk8CrxK3jGo0koOOACp-73" value="belong to" style="text;strokeColor=none;fillColor=none;spacingLeft=4;spacingRight=4;overflow=hidden;rotatable=0;points=[[0,0.5],[1,0.5]];portConstraint=eastwest;fontSize=12;" parent="1" vertex="1">
          <mxGeometry x="840" y="180" width="90" height="30" as="geometry" />
        </mxCell>
        <mxCell id="Gnk8CrxK3jGo0koOOACp-74" value="add" style="text;strokeColor=none;fillColor=none;spacingLeft=4;spacingRight=4;overflow=hidden;rotatable=0;points=[[0,0.5],[1,0.5]];portConstraint=eastwest;fontSize=12;" parent="1" vertex="1">
          <mxGeometry x="490" y="720" width="90" height="30" as="geometry" />
        </mxCell>
        <mxCell id="Gnk8CrxK3jGo0koOOACp-75" value="have" style="text;strokeColor=none;fillColor=none;spacingLeft=4;spacingRight=4;overflow=hidden;rotatable=0;points=[[0,0.5],[1,0.5]];portConstraint=eastwest;fontSize=12;" parent="1" vertex="1">
          <mxGeometry x="800" y="360" width="90" height="30" as="geometry" />
        </mxCell>
        <mxCell id="Gnk8CrxK3jGo0koOOACp-76" value="have" style="text;strokeColor=none;fillColor=none;spacingLeft=4;spacingRight=4;overflow=hidden;rotatable=0;points=[[0,0.5],[1,0.5]];portConstraint=eastwest;fontSize=12;" parent="1" vertex="1">
          <mxGeometry x="240" y="720" width="90" height="30" as="geometry" />
        </mxCell>
        <mxCell id="Gnk8CrxK3jGo0koOOACp-77" value="belong to" style="text;strokeColor=none;fillColor=none;spacingLeft=4;spacingRight=4;overflow=hidden;rotatable=0;points=[[0,0.5],[1,0.5]];portConstraint=eastwest;fontSize=12;" parent="1" vertex="1">
          <mxGeometry x="310" y="750" width="90" height="30" as="geometry" />
        </mxCell>
        <mxCell id="Gnk8CrxK3jGo0koOOACp-78" value="become" style="text;strokeColor=none;fillColor=none;spacingLeft=4;spacingRight=4;overflow=hidden;rotatable=0;points=[[0,0.5],[1,0.5]];portConstraint=eastwest;fontSize=12;" parent="1" vertex="1">
          <mxGeometry x="560" y="290" width="130" height="50" as="geometry" />
        </mxCell>
        <mxCell id="Gnk8CrxK3jGo0koOOACp-79" value="associate" style="text;strokeColor=none;fillColor=none;spacingLeft=4;spacingRight=4;overflow=hidden;rotatable=0;points=[[0,0.5],[1,0.5]];portConstraint=eastwest;fontSize=12;" parent="1" vertex="1">
          <mxGeometry x="370" y="20" width="130" height="50" as="geometry" />
        </mxCell>
        <mxCell id="Gnk8CrxK3jGo0koOOACp-80" value="be responsible to" style="text;strokeColor=none;fillColor=none;spacingLeft=4;spacingRight=4;overflow=hidden;rotatable=0;points=[[0,0.5],[1,0.5]];portConstraint=eastwest;fontSize=12;" parent="1" vertex="1">
          <mxGeometry x="400" y="550" width="110" height="30" as="geometry" />
        </mxCell>
        <mxCell id="Gnk8CrxK3jGo0koOOACp-81" value="be assigned to" style="text;strokeColor=none;fillColor=none;spacingLeft=4;spacingRight=4;overflow=hidden;rotatable=0;points=[[0,0.5],[1,0.5]];portConstraint=eastwest;fontSize=12;" parent="1" vertex="1">
          <mxGeometry x="360" y="225" width="90" height="30" as="geometry" />
        </mxCell>
        <mxCell id="Gnk8CrxK3jGo0koOOACp-82" value="perform" style="text;strokeColor=none;fillColor=none;spacingLeft=4;spacingRight=4;overflow=hidden;rotatable=0;points=[[0,0.5],[1,0.5]];portConstraint=eastwest;fontSize=12;" parent="1" vertex="1">
          <mxGeometry x="250" y="390" width="90" height="30" as="geometry" />
        </mxCell>
        <mxCell id="Gnk8CrxK3jGo0koOOACp-83" value="be performed by" style="text;strokeColor=none;fillColor=none;spacingLeft=4;spacingRight=4;overflow=hidden;rotatable=0;points=[[0,0.5],[1,0.5]];portConstraint=eastwest;fontSize=12;" parent="1" vertex="1">
          <mxGeometry x="260" y="225" width="100" height="30" as="geometry" />
        </mxCell>
        <mxCell id="Gnk8CrxK3jGo0koOOACp-84" value="add" style="text;strokeColor=none;fillColor=none;spacingLeft=4;spacingRight=4;overflow=hidden;rotatable=0;points=[[0,0.5],[1,0.5]];portConstraint=eastwest;fontSize=12;" parent="1" vertex="1">
          <mxGeometry x="200" y="600" width="100" height="30" as="geometry" />
        </mxCell>
        <mxCell id="Gnk8CrxK3jGo0koOOACp-85" value="&lt;span style=&quot;color: rgb(0 , 0 , 0) ; font-family: &amp;#34;helvetica&amp;#34; ; font-size: 12px ; font-style: normal ; font-weight: 400 ; letter-spacing: normal ; text-align: left ; text-indent: 0px ; text-transform: none ; word-spacing: 0px ; background-color: rgb(248 , 249 , 250) ; display: inline ; float: none&quot;&gt;be added by&lt;/span&gt;" style="text;whiteSpace=wrap;html=1;" parent="1" vertex="1">
          <mxGeometry x="180" y="225" width="110" height="30" as="geometry" />
        </mxCell>
        <mxCell id="Gnk8CrxK3jGo0koOOACp-86" value="be related to" style="text;strokeColor=none;fillColor=none;spacingLeft=4;spacingRight=4;overflow=hidden;rotatable=0;points=[[0,0.5],[1,0.5]];portConstraint=eastwest;fontSize=12;" parent="1" vertex="1">
          <mxGeometry x="80" y="600" width="100" height="30" as="geometry" />
        </mxCell>
        <mxCell id="Gnk8CrxK3jGo0koOOACp-87" value="have" style="text;strokeColor=none;fillColor=none;spacingLeft=4;spacingRight=4;overflow=hidden;rotatable=0;points=[[0,0.5],[1,0.5]];portConstraint=eastwest;fontSize=12;" parent="1" vertex="1">
          <mxGeometry x="180" y="430" width="90" height="30" as="geometry" />
        </mxCell>
        <mxCell id="Gnk8CrxK3jGo0koOOACp-88" value="have" style="text;strokeColor=none;fillColor=none;spacingLeft=4;spacingRight=4;overflow=hidden;rotatable=0;points=[[0,0.5],[1,0.5]];portConstraint=eastwest;fontSize=12;" parent="1" vertex="1">
          <mxGeometry y="600" width="100" height="30" as="geometry" />
        </mxCell>
        <mxCell id="Gnk8CrxK3jGo0koOOACp-89" value="belong to" style="text;strokeColor=none;fillColor=none;spacingLeft=4;spacingRight=4;overflow=hidden;rotatable=0;points=[[0,0.5],[1,0.5]];portConstraint=eastwest;fontSize=12;" parent="1" vertex="1">
          <mxGeometry x="20" y="435" width="100" height="30" as="geometry" />
        </mxCell>
        <mxCell id="Gnk8CrxK3jGo0koOOACp-90" value="have" style="text;strokeColor=none;fillColor=none;spacingLeft=4;spacingRight=4;overflow=hidden;rotatable=0;points=[[0,0.5],[1,0.5]];portConstraint=eastwest;fontSize=12;" parent="1" vertex="1">
          <mxGeometry x="330" y="615" width="100" height="30" as="geometry" />
        </mxCell>
        <mxCell id="Gnk8CrxK3jGo0koOOACp-91" value="belong to" style="text;strokeColor=none;fillColor=none;spacingLeft=4;spacingRight=4;overflow=hidden;rotatable=0;points=[[0,0.5],[1,0.5]];portConstraint=eastwest;fontSize=12;" parent="1" vertex="1">
          <mxGeometry x="235" y="670" width="100" height="30" as="geometry" />
        </mxCell>
        <mxCell id="Gnk8CrxK3jGo0koOOACp-92" value="create" style="text;strokeColor=none;fillColor=none;spacingLeft=4;spacingRight=4;overflow=hidden;rotatable=0;points=[[0,0.5],[1,0.5]];portConstraint=eastwest;fontSize=12;" parent="1" vertex="1">
          <mxGeometry x="235" y="640" width="100" height="30" as="geometry" />
        </mxCell>
        <mxCell id="Gnk8CrxK3jGo0koOOACp-93" value="be created by" style="text;strokeColor=none;fillColor=none;spacingLeft=4;spacingRight=4;overflow=hidden;rotatable=0;points=[[0,0.5],[1,0.5]];portConstraint=eastwest;fontSize=12;" parent="1" vertex="1">
          <mxGeometry x="530" y="350" width="100" height="30" as="geometry" />
        </mxCell>
        <mxCell id="Gnk8CrxK3jGo0koOOACp-95" value="be related to" style="text;strokeColor=none;fillColor=none;spacingLeft=4;spacingRight=4;overflow=hidden;rotatable=0;points=[[0,0.5],[1,0.5]];portConstraint=eastwest;fontSize=12;" parent="1" vertex="1">
          <mxGeometry x="335" y="695" width="100" height="30" as="geometry" />
        </mxCell>
        <mxCell id="Gnk8CrxK3jGo0koOOACp-96" value="be related to" style="text;strokeColor=none;fillColor=none;spacingLeft=4;spacingRight=4;overflow=hidden;rotatable=0;points=[[0,0.5],[1,0.5]];portConstraint=eastwest;fontSize=12;" parent="1" vertex="1">
          <mxGeometry x="100" y="620" width="100" height="30" as="geometry" />
        </mxCell>
        <mxCell id="Gnk8CrxK3jGo0koOOACp-97" value="be related to" style="text;strokeColor=none;fillColor=none;spacingLeft=4;spacingRight=4;overflow=hidden;rotatable=0;points=[[0,0.5],[1,0.5]];portConstraint=eastwest;fontSize=12;" parent="1" vertex="1">
          <mxGeometry x="345" y="580" width="100" height="30" as="geometry" />
        </mxCell>
        <mxCell id="Gnk8CrxK3jGo0koOOACp-99" value="have" style="text;strokeColor=none;fillColor=none;spacingLeft=4;spacingRight=4;overflow=hidden;rotatable=0;points=[[0,0.5],[1,0.5]];portConstraint=eastwest;fontSize=12;" parent="1" vertex="1">
          <mxGeometry x="260" y="480" width="100" height="30" as="geometry" />
        </mxCell>
        <mxCell id="Gnk8CrxK3jGo0koOOACp-100" value="have" style="text;strokeColor=none;fillColor=none;spacingLeft=4;spacingRight=4;overflow=hidden;rotatable=0;points=[[0,0.5],[1,0.5]];portConstraint=eastwest;fontSize=12;" parent="1" vertex="1">
          <mxGeometry x="335" y="480" width="100" height="30" as="geometry" />
        </mxCell>
        <mxCell id="Gnk8CrxK3jGo0koOOACp-101" value="perform" style="text;strokeColor=none;fillColor=none;spacingLeft=4;spacingRight=4;overflow=hidden;rotatable=0;points=[[0,0.5],[1,0.5]];portConstraint=eastwest;fontSize=12;" parent="1" vertex="1">
          <mxGeometry x="355" y="420" width="90" height="30" as="geometry" />
        </mxCell>
        <mxCell id="Gnk8CrxK3jGo0koOOACp-105" value="be performed by" style="text;strokeColor=none;fillColor=none;spacingLeft=4;spacingRight=4;overflow=hidden;rotatable=0;points=[[0,0.5],[1,0.5]];portConstraint=eastwest;fontSize=12;" parent="1" vertex="1">
          <mxGeometry x="520" y="380" width="100" height="30" as="geometry" />
        </mxCell>
        <mxCell id="Gnk8CrxK3jGo0koOOACp-107" value="add" style="text;strokeColor=none;fillColor=none;spacingLeft=4;spacingRight=4;overflow=hidden;rotatable=0;points=[[0,0.5],[1,0.5]];portConstraint=eastwest;fontSize=12;" parent="1" vertex="1">
          <mxGeometry x="490" y="600" width="100" height="30" as="geometry" />
        </mxCell>
        <mxCell id="Gnk8CrxK3jGo0koOOACp-108" value="be added by" style="text;strokeColor=none;fillColor=none;spacingLeft=4;spacingRight=4;overflow=hidden;rotatable=0;points=[[0,0.5],[1,0.5]];portConstraint=eastwest;fontSize=12;" parent="1" vertex="1">
          <mxGeometry x="540" y="405" width="100" height="30" as="geometry" />
        </mxCell>
        <mxCell id="Gnk8CrxK3jGo0koOOACp-109" value="become" style="text;strokeColor=none;fillColor=none;spacingLeft=4;spacingRight=4;overflow=hidden;rotatable=0;points=[[0,0.5],[1,0.5]];portConstraint=eastwest;fontSize=12;" parent="1" vertex="1">
          <mxGeometry x="360" y="-90" width="130" height="50" as="geometry" />
        </mxCell>
        <mxCell id="Gnk8CrxK3jGo0koOOACp-110" value="associate" style="text;strokeColor=none;fillColor=none;spacingLeft=4;spacingRight=4;overflow=hidden;rotatable=0;points=[[0,0.5],[1,0.5]];portConstraint=eastwest;fontSize=12;" parent="1" vertex="1">
          <mxGeometry x="560" y="240" width="130" height="50" as="geometry" />
        </mxCell>
        <mxCell id="Gnk8CrxK3jGo0koOOACp-112" value="create" style="text;strokeColor=none;fillColor=none;spacingLeft=4;spacingRight=4;overflow=hidden;rotatable=0;points=[[0,0.5],[1,0.5]];portConstraint=eastwest;fontSize=12;" parent="1" vertex="1">
          <mxGeometry x="90" y="240" width="50" height="30" as="geometry" />
        </mxCell>
        <mxCell id="Gnk8CrxK3jGo0koOOACp-113" value="be created by" style="text;strokeColor=none;fillColor=none;spacingLeft=4;spacingRight=4;overflow=hidden;rotatable=0;points=[[0,0.5],[1,0.5]];portConstraint=eastwest;fontSize=12;" parent="1" vertex="1">
          <mxGeometry x="145" y="-90" width="90" height="30" as="geometry" />
        </mxCell>
        <mxCell id="xn8MVUkUAr-4KWDl8Nz2-1" value="Team Chat" style="rounded=1;whiteSpace=wrap;html=1;" vertex="1" parent="1">
          <mxGeometry x="610" y="-90" width="190" height="100" as="geometry" />
        </mxCell>
        <mxCell id="xn8MVUkUAr-4KWDl8Nz2-2" value="" style="edgeStyle=entityRelationEdgeStyle;fontSize=12;html=1;endArrow=ERzeroToMany;startArrow=ERmandOne;entryX=0.006;entryY=0.423;entryDx=0;entryDy=0;entryPerimeter=0;" edge="1" parent="1" target="xn8MVUkUAr-4KWDl8Nz2-1">
          <mxGeometry width="100" height="100" relative="1" as="geometry">
            <mxPoint x="370" y="10" as="sourcePoint" />
            <mxPoint x="370" y="197.5" as="targetPoint" />
          </mxGeometry>
        </mxCell>
        <mxCell id="xn8MVUkUAr-4KWDl8Nz2-3" value="" style="edgeStyle=entityRelationEdgeStyle;fontSize=12;html=1;endArrow=ERzeroToMany;startArrow=ERmandOne;" edge="1" parent="1" source="Gnk8CrxK3jGo0koOOACp-2" target="xn8MVUkUAr-4KWDl8Nz2-1">
          <mxGeometry width="100" height="100" relative="1" as="geometry">
            <mxPoint x="870" y="37.5" as="sourcePoint" />
            <mxPoint x="870" y="225" as="targetPoint" />
          </mxGeometry>
        </mxCell>
        <mxCell id="xn8MVUkUAr-4KWDl8Nz2-4" value="be associate" style="text;strokeColor=none;fillColor=none;spacingLeft=4;spacingRight=4;overflow=hidden;rotatable=0;points=[[0,0.5],[1,0.5]];portConstraint=eastwest;fontSize=12;" vertex="1" parent="1">
          <mxGeometry x="827" y="-150" width="90" height="30" as="geometry" />
        </mxCell>
        <mxCell id="xn8MVUkUAr-4KWDl8Nz2-5" value="have" style="text;strokeColor=none;fillColor=none;spacingLeft=4;spacingRight=4;overflow=hidden;rotatable=0;points=[[0,0.5],[1,0.5]];portConstraint=eastwest;fontSize=12;" vertex="1" parent="1">
          <mxGeometry x="840" y="120" width="90" height="30" as="geometry" />
        </mxCell>
        <mxCell id="xn8MVUkUAr-4KWDl8Nz2-8" value="&lt;span style=&quot;color: rgb(0 , 0 , 0) ; font-family: &amp;#34;helvetica&amp;#34; ; font-size: 12px ; font-style: normal ; font-weight: 400 ; letter-spacing: normal ; text-align: left ; text-indent: 0px ; text-transform: none ; word-spacing: 0px ; background-color: rgb(248 , 249 , 250) ; display: inline ; float: none&quot;&gt;be added by&lt;/span&gt;" style="text;whiteSpace=wrap;html=1;" vertex="1" parent="1">
          <mxGeometry x="535" y="-80" width="110" height="30" as="geometry" />
        </mxCell>
        <mxCell id="xn8MVUkUAr-4KWDl8Nz2-9" value="add" style="text;strokeColor=none;fillColor=none;spacingLeft=4;spacingRight=4;overflow=hidden;rotatable=0;points=[[0,0.5],[1,0.5]];portConstraint=eastwest;fontSize=12;" vertex="1" parent="1">
          <mxGeometry x="370" y="-20" width="100" height="30" as="geometry" />
        </mxCell>
      </root>
    </mxGraphModel>
  </diagram>
</mxfile>
